# xmcd
#
# Track frame offsets:
#	150
#	22740
#	52920
#	77690
#	120020
#	140550
#	175640
#	193885
#	214270
#	236990
#	257175
#
# Disc length: 3656 seconds
#
# Revision: 0
# Processed by: cddbd v1.5.2PL0 Copyright (c) Steve Scherf et al.
# Submitted via: dBpowerAMP V4.0
#
DISCID=8f0e460b
DTITLE=Furacão 2000 - Sensibilidade
DYEAR=1998
DGENRE=R&B
TTITLE0=Sound Experience - You Don't Know What You're Doing
TTITLE1=Fredom Express - Stolen Pleasures
TTITLE2=George Keer - Don't Fight The Feeling
TTITLE3=E.B.O. - Id Rather Be By Myself
TTITLE4=Skip Mahoany - Where ever You go
TTITLE5=Harold Melvin and The Blue Notes - Let's Talk Over
TTITLE6=Meg - Betcha By Golla Wow
TTITLE7=Deborah Resto - Slow Down
TTITLE8=Gigolo Tony - Can't Nobody Love You Like I Do
TTITLE9=Stephane - Break Up To Make Up
TTITLE10=Angee - Toby
EXTD=
EXTT0=
EXTT1=
EXTT2=
EXTT3=
EXTT4=
EXTT5=
EXTT6=
EXTT7=
EXTT8=
EXTT9=
EXTT10=
PLAYORDER=
